<svg xmlns="http://www.w3.org/2000/svg" aria-hidden="true" style="position:absolute;width:0;height:0;overflow:hidden">
    <defs>
        <symbol id="icon-arr-right" viewBox="0 0 123 32">
            <path fill="#fff"
                d="M121.462 32c3.108 0 .939-3.488 0-4.522L96.315.776c-.939-1.034-2.461-1.034-3.4 0s-.939 2.711 0 3.746l21.043 22.181H2.405c-1.328 0-2.404 1.186-2.404 2.649s1.076 2.649 2.404 2.649H121.463z"
                opacity=".5" style="fill:var(--color1, #fff)" />
        </symbol>
        <symbol id="icon-Arr-left" viewBox="0 0 123 32">
            <path fill="#fff"
                d="M1.615 0c-3.109 0-.939 3.487 0 4.522l25.147 26.702c.939 1.035 2.461 1.035 3.4 0s.939-2.711 0-3.746L9.119 5.297h111.553c1.328 0 2.404-1.186 2.404-2.649S122-.001 120.672-.001H1.614z"
                opacity=".5" style="fill:var(--color1, #fff)" />
        </symbol>
        <symbol id="icon-twitter" viewBox="0 0 36 32">
            <path fill="#c4c4c4"
                d="M34.112 0H2.545c-.759 0-1.373.572-1.373 1.28v29.44c0 .708.613 1.28 1.373 1.28h31.567c.759 0 1.373-.572 1.373-1.28V1.28c0-.708-.613-1.28-1.373-1.28zm-6.549 11.588c.013.188.013.384.013.576 0 5.872-4.795 12.636-13.558 12.636-2.702 0-5.207-.732-7.317-1.992.386.04.755.056 1.149.056 2.23 0 4.28-.704 5.915-1.896-2.093-.04-3.852-1.32-4.452-3.08.733.1 1.394.1 2.149-.08-1.078-.204-2.046-.75-2.742-1.545s-1.074-1.789-1.071-2.815v-.056a5.03 5.03 0 0 0 2.149.564c-.653-.406-1.188-.955-1.558-1.6s-.564-1.365-.565-2.096c0-.828.232-1.584.648-2.24 1.196 1.373 2.689 2.497 4.381 3.297s3.546 1.259 5.441 1.347c-.673-3.02 1.746-5.464 4.654-5.464 1.373 0 2.608.536 3.478 1.4a9.835 9.835 0 0 0 3.024-1.068c-.356 1.028-1.102 1.896-2.093 2.444a9.96 9.96 0 0 0 2.745-.692 9.644 9.644 0 0 1-2.389 2.304z"
                style="fill:var(--color2, #c4c4c4)" />
        </symbol>
        <symbol id="icon-instagram" viewBox="0 0 35 32">
            <path fill="#c4c4c4"
                d="M17.51 12.19c-.808 0-1.598.224-2.269.643s-1.195 1.014-1.504 1.71c-.309.696-.39 1.462-.232 2.201s.547 1.418 1.118 1.95c.571.533 1.299.895 2.092 1.042s1.614.071 2.36-.217 1.384-.777 1.833-1.403a3.63 3.63 0 0 0 .688-2.117c-.001-1.011-.432-1.979-1.198-2.694s-1.805-1.116-2.889-1.116zm9.552-2.929c-.208-.492-.522-.938-.923-1.312s-.879-.667-1.406-.861c-1.608-.592-5.438-.459-7.223-.459s-5.61-.138-7.223.459c-.527.194-1.006.487-1.406.861s-.715.82-.923 1.312c-.634 1.5-.492 5.075-.492 6.738s-.142 5.233.496 6.739c.208.491.522.938.923 1.312s.879.667 1.406.861c1.608.592 5.438.459 7.223.459s5.609.138 7.223-.459c.527-.194 1.006-.487 1.406-.861s.715-.82.923-1.312c.639-1.5.493-5.075.493-6.738s.147-5.233-.493-6.738l-.003-.001zM17.51 21.857c-1.242 0-2.456-.344-3.489-.987s-1.838-1.558-2.313-2.629c-.475-1.07-.6-2.248-.357-3.384s.84-2.18 1.719-2.999c.878-.819 1.997-1.377 3.216-1.603s2.481-.11 3.629.333c1.148.443 2.128 1.194 2.819 2.157s1.058 2.096 1.058 3.254c.001.769-.161 1.531-.476 2.243s-.778 1.357-1.361 1.901-1.276.975-2.039 1.269-1.58.445-2.405.444zm6.54-10.593c-.29 0-.573-.08-.815-.23s-.429-.364-.54-.613c-.111-.25-.14-.525-.084-.79s.196-.509.401-.7c.205-.191.466-.322.751-.374s.579-.026.847.078c.268.103.497.279.658.504a1.303 1.303 0 0 1-.18 1.728c-.136.127-.297.228-.475.297s-.368.104-.561.105l-.003-.003zM30.99 0H4.03c-.975 0-1.91.361-2.6 1.004S.353 2.519.353 3.428v25.143c0 .909.387 1.781 1.077 2.424s1.625 1.004 2.6 1.004h26.96c.975 0 1.91-.361 2.6-1.004s1.077-1.515 1.077-2.424V3.428c0-.909-.387-1.781-1.077-2.424S31.965 0 30.99 0zm-1.311 20.714c-.099 1.831-.547 3.453-1.98 4.786s-3.171 1.759-5.131 1.846c-2.023.106-8.087.106-10.11 0-1.963-.092-3.696-.511-5.132-1.846s-1.886-2.959-1.98-4.786c-.114-1.887-.114-7.544 0-9.429.099-1.831.542-3.453 1.98-4.786s3.176-1.754 5.132-1.841c2.023-.106 8.087-.106 10.11 0 1.963.092 3.702.511 5.131 1.846s1.886 2.959 1.98 4.789c.114 1.88.114 7.531 0 9.42z"
                style="fill:var(--color2, #c4c4c4)" />
        </symbol>
        <symbol id="icon-facebook" viewBox="0 0 36 32">
            <path fill="#c4c4c4"
                d="M33.544 0H2.091c-.379 0-.743.14-1.011.391S.661.98.661 1.334v29.333c0 .354.151.693.419.943s.632.391 1.011.391H18.89v-12h-4.289v-5h4.289v-4c0-4.133 2.806-6.167 6.76-6.167 1.893 0 3.521.132 3.995.189v4.32l-2.741.001c-2.15 0-2.652.953-2.652 2.351V15h5.361l-1.072 5h-4.289l.086 12h9.207c.379 0 .743-.141 1.011-.391s.419-.589.419-.943V1.333c0-.354-.151-.693-.419-.943s-.632-.391-1.011-.391z"
                style="fill:var(--color2, #c4c4c4)" />
        </symbol>
        <symbol id="icon-arrow" viewBox="0 0 48 32">
            <path fill="none" stroke="#fff" stroke-linecap="round" stroke-linejoin="round" stroke-width="5.333"
                d="M2.667 14.667h42.667M32 2.667 45.333 16 32 29.333" style="stroke:var(--color1, #fff)" />
        </symbol>
        <symbol id="icon-burger" viewBox="0 0 32 32">
            <path d="M2 6h28v6H2zm0 8h28v6H2zm0 8h28v6H2z" />
        </symbol>
        <symbol id="icon-cross" viewBox="0 0 32 32">
            <path
                d="M31.708 25.708 22 16l9.708-9.708a1 1 0 0 0 0-1.414L27.122.292a1 1 0 0 0-1.414-.001L16 9.999 6.292.291a.998.998 0 0 0-1.414.001L.292 4.878a1 1 0 0 0 0 1.414L10 16 .292 25.708a.999.999 0 0 0 0 1.414l4.586 4.586a1 1 0 0 0 1.414 0L16 22l9.708 9.708a1 1 0 0 0 1.414 0l4.586-4.586a.999.999 0 0 0 0-1.414z" />
        </symbol>
    </defs>
</svg>