<svg xmlns="http://www.w3.org/2000/svg" aria-hidden="true" style="position:absolute;width:0;height:0;overflow:hidden">
    <defs>
        <symbol id="icon-arr-right" viewBox="0 0 123 32">
            <path fill="#fff"
                d="M121.462 32c3.108 0 .939-3.488 0-4.522L96.315.776c-.939-1.034-2.461-1.034-3.4 0s-.939 2.711 0 3.746l21.043 22.181H2.405c-1.328 0-2.404 1.186-2.404 2.649s1.076 2.649 2.404 2.649H121.463z"
                opacity=".5" style="fill:var(--color1, #fff)" />
        </symbol>
        <symbol id="icon-Arr-left" viewBox="0 0 123 32">
            <path fill="#fff"
                d="M1.615 0c-3.109 0-.939 3.487 0 4.522l25.147 26.702c.939 1.035 2.461 1.035 3.4 0s.939-2.711 0-3.746L9.119 5.297h111.553c1.328 0 2.404-1.186 2.404-2.649S122-.001 120.672-.001H1.614z"
                opacity=".5" style="fill:var(--color1, #fff)" />
        </symbol>
        <symbol id="icon-twitter" viewBox="0 0 36 32">
            <path
                d="M34.112 0H2.545c-.759 0-1.373.572-1.373 1.28v29.44c0 .708.613 1.28 1.373 1.28h31.567c.759 0 1.373-.572 1.373-1.28V1.28c0-.708-.613-1.28-1.373-1.28zm-6.549 11.588c.013.188.013.384.013.576 0 5.872-4.795 12.636-13.558 12.636-2.702 0-5.207-.732-7.317-1.992.386.04.755.056 1.149.056 2.23 0 4.28-.704 5.915-1.896-2.093-.04-3.852-1.32-4.452-3.08.733.1 1.394.1 2.149-.08-1.078-.204-2.046-.75-2.742-1.545s-1.074-1.789-1.071-2.815v-.056a5.03 5.03 0 0 0 2.149.564c-.653-.406-1.188-.955-1.558-1.6s-.564-1.365-.565-2.096c0-.828.232-1.584.648-2.24 1.196 1.373 2.689 2.497 4.381 3.297s3.546 1.259 5.441 1.347c-.673-3.02 1.746-5.464 4.654-5.464 1.373 0 2.608.536 3.478 1.4a9.835 9.835 0 0 0 3.024-1.068c-.356 1.028-1.102 1.896-2.093 2.444a9.96 9.96 0 0 0 2.745-.692 9.644 9.644 0 0 1-2.389 2.304z" />
        </symbol>
        <symbol id="icon-instagram" viewBox="0 0 35 32">
            <path
                d="M17.51 12.19c-.808 0-1.598.224-2.269.643s-1.195 1.014-1.504 1.71c-.309.696-.39 1.462-.232 2.201s.547 1.418 1.118 1.95c.571.533 1.299.895 2.092 1.042s1.614.071 2.36-.217 1.384-.777 1.833-1.403a3.63 3.63 0 0 0 .688-2.117c-.001-1.011-.432-1.979-1.198-2.694s-1.805-1.116-2.889-1.116zm9.552-2.929c-.208-.492-.522-.938-.923-1.312s-.879-.667-1.406-.861c-1.608-.592-5.438-.459-7.223-.459s-5.61-.138-7.223.459c-.527.194-1.006.487-1.406.861s-.715.82-.923 1.312c-.634 1.5-.492 5.075-.492 6.738s-.142 5.233.496 6.739c.208.491.522.938.923 1.312s.879.667 1.406.861c1.608.592 5.438.459 7.223.459s5.609.138 7.223-.459c.527-.194 1.006-.487 1.406-.861s.715-.82.923-1.312c.639-1.5.493-5.075.493-6.738s.147-5.233-.493-6.738l-.003-.001zM17.51 21.857c-1.242 0-2.456-.344-3.489-.987s-1.838-1.558-2.313-2.629c-.475-1.07-.6-2.248-.357-3.384s.84-2.18 1.719-2.999c.878-.819 1.997-1.377 3.216-1.603s2.481-.11 3.629.333c1.148.443 2.128 1.194 2.819 2.157s1.058 2.096 1.058 3.254c.001.769-.161 1.531-.476 2.243s-.778 1.357-1.361 1.901-1.276.975-2.039 1.269-1.58.445-2.405.444zm6.54-10.593c-.29 0-.573-.08-.815-.23s-.429-.364-.54-.613c-.111-.25-.14-.525-.084-.79s.196-.509.401-.7c.205-.191.466-.322.751-.374s.579-.026.847.078c.268.103.497.279.658.504a1.303 1.303 0 0 1-.18 1.728c-.136.127-.297.228-.475.297s-.368.104-.561.105l-.003-.003zM30.99 0H4.03c-.975 0-1.91.361-2.6 1.004S.353 2.519.353 3.428v25.143c0 .909.387 1.781 1.077 2.424s1.625 1.004 2.6 1.004h26.96c.975 0 1.91-.361 2.6-1.004s1.077-1.515 1.077-2.424V3.428c0-.909-.387-1.781-1.077-2.424S31.965 0 30.99 0zm-1.311 20.714c-.099 1.831-.547 3.453-1.98 4.786s-3.171 1.759-5.131 1.846c-2.023.106-8.087.106-10.11 0-1.963-.092-3.696-.511-5.132-1.846s-1.886-2.959-1.98-4.786c-.114-1.887-.114-7.544 0-9.429.099-1.831.542-3.453 1.98-4.786s3.176-1.754 5.132-1.841c2.023-.106 8.087-.106 10.11 0 1.963.092 3.702.511 5.131 1.846s1.886 2.959 1.98 4.789c.114 1.88.114 7.531 0 9.42z" />
        </symbol>
        <symbol id="icon-facebook" viewBox="0 0 36 32">
            <path
                d="M33.544 0H2.091c-.379 0-.743.14-1.011.391S.661.98.661 1.334v29.333c0 .354.151.693.419.943s.632.391 1.011.391H18.89v-12h-4.289v-5h4.289v-4c0-4.133 2.806-6.167 6.76-6.167 1.893 0 3.521.132 3.995.189v4.32l-2.741.001c-2.15 0-2.652.953-2.652 2.351V15h5.361l-1.072 5h-4.289l.086 12h9.207c.379 0 .743-.141 1.011-.391s.419-.589.419-.943V1.333c0-.354-.151-.693-.419-.943s-.632-.391-1.011-.391z" />
        </symbol>
        <symbol id="icon-arrow" viewBox="0 0 48 32">
            <path fill="none" stroke="#fff" stroke-linecap="round" stroke-linejoin="round" stroke-width="5.333"
                d="M2.667 14.667h42.667M32 2.667 45.333 16 32 29.333" style="stroke:var(--color1, #fff)" />
        </symbol>
        <symbol id="icon-burger" viewBox="0 0 32 32">
            <path d="M2 6h28v6H2zm0 8h28v6H2zm0 8h28v6H2z" />
        </symbol>
        <symbol id="icon-cross" viewBox="0 0 32 32">
            <path
                d="M31.708 25.708 22 16l9.708-9.708a1 1 0 0 0 0-1.414L27.122.292a1 1 0 0 0-1.414-.001L16 9.999 6.292.291a.998.998 0 0 0-1.414.001L.292 4.878a1 1 0 0 0 0 1.414L10 16 .292 25.708a.999.999 0 0 0 0 1.414l4.586 4.586a1 1 0 0 0 1.414 0L16 22l9.708 9.708a1 1 0 0 0 1.414 0l4.586-4.586a.999.999 0 0 0 0-1.414z" />
        </symbol>
        <symbol id="icon-certificate" viewBox="0 0 32 32">
            <path
                d="M30.667 1.333v24h-4V24h2.667V2.667H2.667V24h10.667v1.333h-12v-24zM21.333 4H10.666v1.333h10.667zm-2.666 4V6.667h-5.333V8zm-9.334 6.667H4V16h5.333zm0 2.666H4v1.333h5.333zm-5.333 4h2.667V20H4zm18.667-4A2.667 2.667 0 1 1 20 14.666a2.67 2.67 0 0 1 2.667 2.667zm-1.334 0A1.333 1.333 0 1 0 20 18.666a1.334 1.334 0 0 0 1.333-1.333zm.003-5.724a1.29 1.29 0 0 0 1.767.73l-.008.003a1.435 1.435 0 0 1 1.618.277 1.419 1.419 0 0 1 .277 1.622l.004-.008a1.288 1.288 0 0 0 .722 1.762l.009.003a1.42 1.42 0 0 1 .009 2.669l-.01.003a1.289 1.289 0 0 0-.728 1.771l-.003-.008a1.4 1.4 0 0 1-.983 1.987l-.009.002v9.395l-4-3.384-4 3.384v-9.395a1.403 1.403 0 0 1-.988-1.995l-.004.008a1.288 1.288 0 0 0-.723-1.763l-.009-.003A1.42 1.42 0 0 1 14.268 16l.01-.003a1.29 1.29 0 0 0 .728-1.773l.003.008a1.416 1.416 0 0 1 .279-1.613 1.433 1.433 0 0 1 1.624-.271l-.009-.004a1.286 1.286 0 0 0 1.757-.726l.003-.009c.201-.554.724-.943 1.337-.943s1.135.389 1.334.933l.003.01zm1.331 17.334v-6.72a1.24 1.24 0 0 0-1.328.824l-.003.009a1.42 1.42 0 0 1-2.669.009l-.003-.01a1.243 1.243 0 0 0-1.337-.832l.006-.001v6.719L20 26.685zm-2.587-6.332a2.627 2.627 0 0 1 2.471-1.744c.422.005.82.101 1.177.27l-.017-.007.077-.121a2.62 2.62 0 0 1 1.47-3.588l.018-.006v-.163a2.625 2.625 0 0 1-1.481-3.609l-.007.016-.116-.112a2.621 2.621 0 0 1-3.586-1.471l-.006-.018h-.16a2.625 2.625 0 0 1-3.608 1.482l.016.007-.116.112a2.622 2.622 0 0 1-1.47 3.587l-.018.006v.163a2.624 2.624 0 0 1 1.481 3.609l.007-.016.077.12c.34-.161.738-.257 1.159-.261h.001c1.133 0 2.099.719 2.465 1.726l.006.018.08.056z" />
        </symbol>
        <symbol id="icon-canada" viewBox="0 0 32 32">
            <path
                d="M16.361 31h-.72v-6.592l-7.596.949a.36.36 0 0 1-.386-.472l.917-2.753-7.792-5.845a.358.358 0 0 1 .102-.63l2.606-.869-1.814-3.628a.359.359 0 0 1 .409-.51l3.677.919.895-2.684a.359.359 0 0 1 .596-.141l4.126 4.125-1.732-7.791a.36.36 0 0 1 .465-.419l2.727.909L15.693.816c.13-.217.487-.217.617 0l2.852 4.752 2.727-.909a.358.358 0 0 1 .465.419l-1.731 7.793 4.125-4.125a.36.36 0 0 1 .597.141l.895 2.684 3.677-.919a.359.359 0 0 1 .409.51L28.51 14.79l2.606.869a.36.36 0 0 1 .101.63l-7.792 5.844.918 2.754c.039.118.015.247-.063.343s-.192.146-.323.129l-7.596-.949V31zM1.766 16.124l7.451 5.588a.358.358 0 0 1 .125.402l-.819 2.458 7.434-.93a.332.332 0 0 1 .089 0l7.434.93-.819-2.458a.36.36 0 0 1 .126-.402l7.45-5.588-2.349-.783a.36.36 0 0 1-.208-.503l1.65-3.3-3.241.81a.359.359 0 0 1-.429-.235l-.815-2.447-4.588 4.588a.36.36 0 0 1-.607-.333l1.862-8.379-2.397.799a.358.358 0 0 1-.423-.156L16.001 1.7 13.31 6.185a.36.36 0 0 1-.422.156l-2.398-.799 1.863 8.379a.36.36 0 0 1-.606.333L7.158 9.667l-.816 2.447a.357.357 0 0 1-.429.235l-3.241-.81 1.65 3.3a.36.36 0 0 1-.208.503l-2.348.782z" />
        </symbol>
        <symbol id="icon-html" viewBox="0 0 32 32">
            <path
                d="M24.696 9.6H10.899l.33 3.2h13.139c-.193 2.803-.775 8.742-.989 11.445l-7.396 2.091-7.385-2.598-.506-6.138h3.62l.256 3.301 4.031 1.499 4.015-1.44.413-4.96H7.931c-.06-.642-.837-8.973-.973-9.6h18.061c-.101 1.056-.204 2.141-.323 3.2zM1.6 0l2.621 29.037L15.983 32l11.793-3.022L30.4 0H1.6z" />
        </symbol>
        <symbol id="icon-typescript" viewBox="0 0 32 32">
            <path
                d="M0 16v16h32V0H0zm25.786-1.276a4.023 4.023 0 0 1 2.005 1.156c.292.312.729.885.766 1.026.01.042-1.38.974-2.224 1.495-.031.021-.156-.109-.292-.313-.411-.599-.844-.859-1.505-.906-.969-.063-1.594.443-1.589 1.292a1.26 1.26 0 0 0 .135.599c.214.443.615.708 1.854 1.245 2.292.984 3.271 1.635 3.88 2.557.682 1.031.833 2.677.375 3.906-.51 1.328-1.771 2.234-3.542 2.531-.547.099-1.849.083-2.438-.026-1.286-.229-2.505-.865-3.255-1.698-.297-.323-.87-1.172-.833-1.229.016-.021.146-.104.292-.188l1.188-.688.922-.536.193.286c.271.411.859.974 1.214 1.161 1.021.542 2.422.464 3.115-.156.281-.234.438-.594.417-.958 0-.37-.047-.536-.24-.813-.25-.354-.755-.656-2.198-1.281-1.651-.714-2.365-1.151-3.01-1.854a4.236 4.236 0 0 1-.88-1.599c-.12-.453-.151-1.589-.057-2.042.339-1.599 1.547-2.708 3.281-3.036.563-.109 1.875-.068 2.427.068zm-7.51 1.339.01 1.307h-4.167v11.839h-2.948V17.37H7.01v-1.281c0-.714.016-1.307.036-1.323.016-.021 2.547-.031 5.62-.026l5.594.016z" />
        </symbol>
        <symbol id="icon-react" viewBox="0 0 32 32">
            <path
                d="M16 13.48a2.493 2.493 0 1 1-2.493 2.521V15.987A2.507 2.507 0 0 1 16 13.48h.001zM9.827 26.667c.84.507 2.667-.267 4.8-2.267a32.07 32.07 0 0 1-1.948-2.439l-.065-.095a30.192 30.192 0 0 1-3.403-.572l.203.039c-.68 2.853-.427 4.813.413 5.333zm.946-7.654-.387-.68a9.495 9.495 0 0 0-.369 1.072l-.018.074c.36.08.76.147 1.173.213l-.4-.68zM19.493 18l1.08-2-1.08-2c-.4-.707-.827-1.333-1.213-1.96C17.56 12 16.8 12 16 12h-2.28c-.387.627-.813 1.253-1.213 1.96L11.427 16l1.08 2c.4.707.827 1.333 1.213 1.96h4.56c.387-.627.813-1.253 1.213-1.96zM16 9.04c-.253.293-.52.6-.787.96h1.573c-.267-.36-.533-.667-.787-.96zm0 13.92c.253-.293.52-.6.787-.96h-1.573c.267.36.533.667.787.96zm6.16-17.627c-.827-.507-2.667.267-4.787 2.267a32.07 32.07 0 0 1 1.948 2.439l.065.095c1.235.119 2.327.289 3.398.515l-.198-.035c.68-2.853.427-4.813-.427-5.333zm-.933 7.6.387.68c.127-.301.259-.682.369-1.072l.018-.074c-.36-.08-.76-.147-1.173-.213l.4.68zM23.16 3.6c1.96 1.12 2.173 4.067 1.333 7.507 3.387 1 5.827 2.667 5.827 4.907s-2.44 3.907-5.827 4.907c.827 3.44.613 6.387-1.333 7.507s-4.6-.16-7.16-2.6c-2.56 2.44-5.213 3.72-7.173 2.6s-2.16-4-1.333-7.507c-3.387-1-5.827-2.667-5.827-4.907s2.44-3.92 5.827-4.92c-.827-3.44-.613-6.387 1.333-7.507s4.613.16 7.173 2.6c2.56-2.44 5.213-3.72 7.16-2.6zM22.773 16a26.96 26.96 0 0 1 1.162 2.803l.065.21c2.8-.84 4.373-2.04 4.373-3.013S26.76 13.827 24 12.987a28.843 28.843 0 0 1-1.305 3.193l.078-.18zM9.227 16a26.96 26.96 0 0 1-1.162-2.803L8 12.987c-2.8.84-4.373 2.04-4.373 3.013S5.24 18.173 8 19.013c.426-1.231.84-2.227 1.305-3.193l-.078.18zm12 3.013-.4.68c.413 0 .813-.133 1.173-.213-.128-.465-.26-.846-.412-1.217l.026.07-.387.68zM17.333 24.4c2.12 2 4 2.773 4.787 2.267s1.107-2.427.427-5.333c-.873.191-1.965.361-3.075.47l-.125.01a32.34 32.34 0 0 1-2.047 2.627l.034-.04zm-6.56-11.413.4-.68c-.413 0-.813.133-1.173.213.128.465.26.846.412 1.217l-.026-.07.387-.68zM14.667 7.6c-2.16-2-4-2.773-4.84-2.267s-1.093 2.427-.413 5.333a27.543 27.543 0 0 1 3.075-.47l.125-.01a32.39 32.39 0 0 1 2.083-2.621l-.03.035z" />
        </symbol>
        <symbol id="icon-javascript" viewBox="0 0 32 32">
            <path
                d="M24.525 29.491c-2.792 0-4.597-1.331-5.477-3.072l2.448-1.418c.645 1.053 1.482 1.826 2.965 1.826 1.245 0 2.04-.622 2.04-1.482 0-1.293-1.725-1.798-2.942-2.32-2.17-.923-3.61-2.083-3.61-4.533 0-2.254 1.718-3.973 4.405-3.973 1.91 0 3.286.666 4.274 2.405l-2.341 1.504c-.515-.923-1.074-1.288-1.933-1.288-.882 0-1.44.558-1.44 1.288 0 .902.558 1.267 1.848 1.826 2.702 1.158 4.747 2.069 4.747 5.048 0 2.707-2.126 4.189-4.984 4.189zM17.6 24.958c0 3.115-1.918 4.762-4.582 4.762-2.406 0-3.848-.92-4.557-2.52h-.042l2.446-1.71c.472.837.898 1.43 1.928 1.43.989 0 1.606-.501 1.606-2.003V14.4h3.2v10.558zM0 32h32V0H0v32z" />
        </symbol>
        <symbol id="icon-css" viewBox="0 0 32 32">
            <path
                d="m30.194.031-2.662 28.832-11.533 3.105-11.533-3.105L1.805.031h28.389zm-5.363 5.863H6.992l.43 3.482h9.049l-8.736 3.638.274 3.403 12.258.039-.274 4.538-4.036 1.133-3.867-.976-.235-2.817H8.243l.469 5.438 7.29 2.152 7.237-2.113.939-10.798h-8.21l.02-.009 8.489-3.629.352-3.482z" />
        </symbol>
        <symbol id="icon-envelop" viewBox="0 0 32 32">
            <path fill="#808184" style="fill: var(--color1, #808184)"
                d="M30.979 5.106h-29.957c-0.563 0-1.021 0.458-1.021 1.021v19.745c0 0.563 0.458 1.021 1.021 1.021h29.957c0.563 0 1.021-0.458 1.021-1.021v-19.745c0-0.563-0.458-1.021-1.021-1.021zM1.021 5.787h29.957c0.187 0 0.34 0.153 0.34 0.34v1.443l-12.972 12.625c-0.521 0.495-1.228 0.8-2.006 0.8-0.78 0-1.488-0.306-2.010-0.805l0.001 0.001-13.651-12.627v-1.437c0-0.187 0.153-0.34 0.34-0.34zM30.979 26.213h-29.957c-0.188 0-0.34-0.152-0.34-0.34v0-17.379l13.185 12.196c0.641 0.611 1.511 0.987 2.469 0.987 0.002 0 0.003 0 0.005 0h-0c0.001 0 0.003 0 0.004 0 0.96 0 1.832-0.377 2.476-0.991l-0.001 0.001 12.5-12.166v17.352c0 0.187-0.153 0.34-0.34 0.34z">
            </path>
            <path fill="#808184" style="fill: var(--color1, #808184)"
                d="M8.438 17.401l-3.832 3.837c-0.062 0.062-0.1 0.147-0.1 0.241 0 0.188 0.152 0.341 0.341 0.341 0.094 0 0.179-0.038 0.241-0.1l3.832-3.837c0.062-0.062 0.1-0.147 0.1-0.241 0-0.188-0.152-0.341-0.341-0.341-0.094 0-0.179 0.038-0.241 0.1v0zM24.463 16.817c-0.061-0.059-0.145-0.096-0.236-0.096-0.188 0-0.34 0.152-0.34 0.34 0 0.092 0.036 0.175 0.096 0.237l4.272 4.273c0.062 0.062 0.147 0.1 0.241 0.1s0.179-0.038 0.241-0.1v0c0.062-0.062 0.1-0.147 0.1-0.241s-0.038-0.179-0.1-0.241v0z">
            </path>
        </symbol>
        <symbol id="icon-github" viewBox="0 0 32 32">
            <path
                d="M5.432 3.992c0.079-1.373 0.407-1.971 1.347-2.451 1.013-0.516 2.609-0.276 4.488 0.676 0.809 0.409 0.892 0.417 2.311 0.236 1.884-0.241 4.311-0.24 6.051 0.003 1.316 0.184 1.403 0.173 2.213-0.236 2.667-1.351 4.773-1.263 5.535 0.232 0.381 0.747 0.452 2.68 0.156 4.277-0.163 0.885-0.147 0.996 0.248 1.576 2.773 4.087 0.775 10.711-3.976 13.183-0.248 0.131-0.552 0.266-0.865 0.382l-0.055 0.018c-0.767 0.293-1 0.383-0.717 1.731 0.136 0.648 0.299 2.26 0.363 3.581 0.116 2.389 0.115 2.407-0.304 2.893-0.571 0.664-1.393 0.675-1.949 0.027-0.364-0.423-0.4-0.621-0.4-2.252 0-2.408-0.263-4.008-0.887-5.38-0.743-1.632-0.192-2.241 1.504-2.607 2.357-0.507 4.2-1.961 5.227-4.128 0.975-2.060 1.121-4.907-0.643-6.637-0.501-0.596-0.536-1.137-0.179-2.765 0.133-0.608 0.247-1.393 0.251-1.745 0.004-0.555-0.047-0.639-0.387-0.639-0.216 0-1.040 0.315-1.831 0.697l-1.263 0.612c-0.085 0.042-0.186 0.067-0.292 0.067-0.027 0-0.054-0.002-0.081-0.005l0.003 0c-1.424-0.178-3.071-0.279-4.743-0.279s-3.319 0.101-4.937 0.299l0.194-0.019c-0.025 0.003-0.053 0.005-0.082 0.005-0.105 0-0.205-0.024-0.294-0.068l0.004 0.002-1.261-0.613c-0.791-0.383-1.615-0.697-1.831-0.697-0.499 0-0.507 0.368-0.052 2.555 0.279 1.335 0.465 1.632-0.337 2.7-1.203 1.6-1.503 3.587-0.857 5.675 0.812 2.631 2.801 4.407 5.6 5 1.687 0.357 2.127 0.824 1.483 2.759-0.507 1.52-0.827 1.913-1.564 1.913-0.991 0-1.612-0.859-1.271-1.757 0.151-0.396 0.107-0.439-0.823-0.776-2.835-1.035-5.003-3.351-5.993-6.405-0.767-2.36-0.429-5.433 0.8-7.289 0.419-0.633 0.424-0.687 0.229-1.897-0.090-0.591-0.142-1.274-0.142-1.968 0-0.17 0.003-0.338 0.009-0.507l-0.001 0.024zM4.443 21.26c-0.243-0.36-0.649-0.593-1.109-0.593-0.736 0-1.333 0.597-1.333 1.334 0 0.276 0.084 0.532 0.227 0.745l-0.003-0.005c0.301 0.453 0.663 0.824 0.968 1.131l0.165 0.164c0.257 0.253 0.484 0.48 0.711 0.747 0.504 0.591 1.005 1.387 1.291 2.813 0.128 0.636 0.584 0.979 0.837 1.128 0.275 0.161 0.575 0.257 0.821 0.32 0.505 0.127 1.119 0.193 1.7 0.232 0.639 0.043 1.331 0.056 1.949 0.060 0 0.736 0.597 1.333 1.333 1.333s1.333-0.597 1.333-1.333v0-1.333c0-0.736-0.597-1.333-1.333-1.333v0h-0.405c-0.783 0.003-1.803 0.005-2.701-0.053-0.392-0.023-0.753-0.066-1.107-0.128l0.056 0.008c-0.401-1.579-1.051-2.629-1.744-3.443-0.307-0.36-0.624-0.675-0.883-0.931l-0.137-0.137c-0.299-0.297-0.493-0.509-0.636-0.724z">
            </path>
        </symbol>
        <symbol id="icon-linkedin" viewBox="0 0 32 32">
            <path
                d="M8 2.667c-2.946 0-5.333 2.388-5.333 5.333v0 16c0 2.946 2.388 5.333 5.333 5.333v0h16c2.946 0 5.333-2.388 5.333-5.333v0-16c0-2.946-2.388-5.333-5.333-5.333v0zM5.333 8c0-1.473 1.194-2.667 2.667-2.667v0h16c1.473 0 2.667 1.194 2.667 2.667v0 16c0 1.473-1.194 2.667-2.667 2.667v0h-16c-1.473 0-2.667-1.194-2.667-2.667v0zM12 14.667c0-0.736-0.597-1.333-1.333-1.333s-1.333 0.597-1.333 1.333v0 8c0 0.736 0.597 1.333 1.333 1.333s1.333-0.597 1.333-1.333v0zM12.667 10c0 1.105-0.895 2-2 2s-2-0.895-2-2v0c0-1.105 0.895-2 2-2s2 0.895 2 2v0zM16 13.333c0.453 0 0.853 0.227 1.093 0.571 0.646-0.359 1.416-0.571 2.236-0.571 0.001 0 0.003 0 0.004 0h-0c2.88 0 4.667 2.568 4.667 4.761v4.572c0 0.736-0.597 1.333-1.333 1.333s-1.333-0.597-1.333-1.333v0-4.573c0-1.024-0.88-2.095-2-2.095-0.699 0-1.471 0.38-2 1.284v5.384c0 0.736-0.597 1.333-1.333 1.333s-1.333-0.597-1.333-1.333v0-8c0-0.736 0.597-1.333 1.333-1.333v0z">
            </path>
        </symbol>
        <symbol id="icon-phone" viewBox="0 0 32 32">
            <path fill="#1c274c" style="fill: var(--color2, #1c274c)"
                d="M21.467 17.812l-0.704-0.709zM22.075 17.208l0.705 0.709zM25.297 16.785l-0.477 0.88zM27.844 18.171l-0.477 0.879zM28.563 22.511l0.705 0.709zM26.669 24.393l-0.707-0.708zM24.901 25.287l0.093 0.996zM11.755 19.636l0.704-0.709zM5.336 7.661l-0.999 0.056zM13.968 9.596l0.707 0.709zM14.177 6.057l0.8-0.599zM12.499 3.813l-0.801 0.6zM8.347 3.433l0.707 0.709zM6.253 5.513l-0.704-0.708zM16.083 15.329l0.705-0.709zM22.172 18.521l0.607-0.604-1.411-1.419-0.607 0.604zM24.819 17.664l2.547 1.385 0.955-1.757-2.547-1.384zM27.856 21.801l-1.893 1.884 1.409 1.417 1.893-1.883zM24.808 24.291c-1.933 0.181-6.935 0.020-12.351-5.364l-1.409 1.417c5.909 5.876 11.533 6.164 13.945 5.939zM12.457 18.927c-5.161-5.133-6.016-9.449-6.123-11.323l-1.997 0.113c0.133 2.357 1.193 7.141 6.711 12.627zM14.292 10.687l0.381-0.381-1.407-1.417-0.383 0.38zM14.979 5.459l-1.68-2.245-1.601 1.199 1.68 2.245zM7.644 2.724l-2.093 2.080 1.411 1.419 2.093-2.080zM13.588 9.977c-0.707-0.709-0.707-0.709-0.707-0.707h-0.003l-0.004 0.005c-0.062 0.062-0.118 0.131-0.166 0.204l-0.003 0.005c-0.072 0.107-0.151 0.247-0.217 0.424-0.102 0.279-0.161 0.6-0.161 0.936 0 0.174 0.016 0.344 0.046 0.51l-0.003-0.017c0.179 1.153 0.973 2.677 3.008 4.701l1.411-1.419c-1.905-1.893-2.359-3.045-2.443-3.589-0.040-0.259 0.001-0.387 0.013-0.416q0.012-0.027 0-0.008c-0.013 0.020-0.026 0.037-0.040 0.052l0-0-0.013 0.013-0.013 0.012zM15.379 16.039c2.036 2.024 3.568 2.813 4.723 2.989 0.591 0.091 1.067 0.019 1.428-0.116 0.214-0.080 0.4-0.186 0.564-0.318l-0.004 0.003 0.067-0.060 0.009-0.008 0.004-0.004 0.001-0.003s0.003-0.001-0.703-0.711c-0.707-0.709-0.704-0.711-0.704-0.711l0.005-0.005 0.008-0.007 0.013-0.013 0.051-0.040q0.019-0.012-0.009 0.003c-0.033 0.012-0.164 0.053-0.427 0.013-0.552-0.085-1.712-0.539-3.616-2.432zM13.299 3.212c-1.36-1.813-4.032-2.1-5.655-0.487l1.409 1.417c0.709-0.705 1.968-0.633 2.644 0.269zM6.336 7.605c-0.027-0.461 0.185-0.944 0.625-1.381l-1.411-1.419c-0.716 0.712-1.28 1.72-1.212 2.912zM25.963 23.685c-0.365 0.365-0.76 0.571-1.153 0.607l0.185 1.992c0.98-0.092 1.781-0.587 2.379-1.18zM14.675 10.307c1.313-1.305 1.411-3.369 0.305-4.847l-1.601 1.199c0.537 0.719 0.457 1.661-0.113 2.231zM27.368 19.051c1.089 0.592 1.259 1.987 0.489 2.752l1.411 1.419c1.787-1.777 1.236-4.743-0.947-5.928zM22.78 17.919c0.512-0.509 1.336-0.635 2.040-0.253l0.955-1.756c-1.445-0.787-3.237-0.569-4.405 0.591z">
            </path>
        </symbol>
    </defs>
</svg>