<svg xmlns="http://www.w3.org/2000/svg" aria-hidden="true" style="position:absolute;width:0;height:0;overflow:hidden">
    <defs>
        <symbol id="icon-html" viewBox="0 0 32 32">
            <path
                d="M24.696 9.6H10.899l.33 3.2h13.139c-.193 2.803-.775 8.742-.989 11.445l-7.396 2.091-7.385-2.598-.506-6.138h3.62l.256 3.301 4.031 1.499 4.015-1.44.413-4.96H7.931c-.06-.642-.837-8.973-.973-9.6h18.061c-.101 1.056-.204 2.141-.323 3.2zM1.6 0l2.621 29.037L15.983 32l11.793-3.022L30.4 0H1.6z" />
        </symbol>
        <symbol id="icon-typescript" viewBox="0 0 32 32">
            <path
                d="M0 16v16h32V0H0zm25.786-1.276a4.023 4.023 0 0 1 2.005 1.156c.292.312.729.885.766 1.026.01.042-1.38.974-2.224 1.495-.031.021-.156-.109-.292-.313-.411-.599-.844-.859-1.505-.906-.969-.063-1.594.443-1.589 1.292a1.26 1.26 0 0 0 .135.599c.214.443.615.708 1.854 1.245 2.292.984 3.271 1.635 3.88 2.557.682 1.031.833 2.677.375 3.906-.51 1.328-1.771 2.234-3.542 2.531-.547.099-1.849.083-2.438-.026-1.286-.229-2.505-.865-3.255-1.698-.297-.323-.87-1.172-.833-1.229.016-.021.146-.104.292-.188l1.188-.688.922-.536.193.286c.271.411.859.974 1.214 1.161 1.021.542 2.422.464 3.115-.156.281-.234.438-.594.417-.958 0-.37-.047-.536-.24-.813-.25-.354-.755-.656-2.198-1.281-1.651-.714-2.365-1.151-3.01-1.854a4.236 4.236 0 0 1-.88-1.599c-.12-.453-.151-1.589-.057-2.042.339-1.599 1.547-2.708 3.281-3.036.563-.109 1.875-.068 2.427.068zm-7.51 1.339.01 1.307h-4.167v11.839h-2.948V17.37H7.01v-1.281c0-.714.016-1.307.036-1.323.016-.021 2.547-.031 5.62-.026l5.594.016z" />
        </symbol>
        <symbol id="icon-react" viewBox="0 0 32 32">
            <path
                d="M16 13.48a2.493 2.493 0 1 1-2.493 2.521V15.987A2.507 2.507 0 0 1 16 13.48h.001zM9.827 26.667c.84.507 2.667-.267 4.8-2.267a32.07 32.07 0 0 1-1.948-2.439l-.065-.095a30.192 30.192 0 0 1-3.403-.572l.203.039c-.68 2.853-.427 4.813.413 5.333zm.946-7.654-.387-.68a9.495 9.495 0 0 0-.369 1.072l-.018.074c.36.08.76.147 1.173.213l-.4-.68zM19.493 18l1.08-2-1.08-2c-.4-.707-.827-1.333-1.213-1.96C17.56 12 16.8 12 16 12h-2.28c-.387.627-.813 1.253-1.213 1.96L11.427 16l1.08 2c.4.707.827 1.333 1.213 1.96h4.56c.387-.627.813-1.253 1.213-1.96zM16 9.04c-.253.293-.52.6-.787.96h1.573c-.267-.36-.533-.667-.787-.96zm0 13.92c.253-.293.52-.6.787-.96h-1.573c.267.36.533.667.787.96zm6.16-17.627c-.827-.507-2.667.267-4.787 2.267a32.07 32.07 0 0 1 1.948 2.439l.065.095c1.235.119 2.327.289 3.398.515l-.198-.035c.68-2.853.427-4.813-.427-5.333zm-.933 7.6.387.68c.127-.301.259-.682.369-1.072l.018-.074c-.36-.08-.76-.147-1.173-.213l.4.68zM23.16 3.6c1.96 1.12 2.173 4.067 1.333 7.507 3.387 1 5.827 2.667 5.827 4.907s-2.44 3.907-5.827 4.907c.827 3.44.613 6.387-1.333 7.507s-4.6-.16-7.16-2.6c-2.56 2.44-5.213 3.72-7.173 2.6s-2.16-4-1.333-7.507c-3.387-1-5.827-2.667-5.827-4.907s2.44-3.92 5.827-4.92c-.827-3.44-.613-6.387 1.333-7.507s4.613.16 7.173 2.6c2.56-2.44 5.213-3.72 7.16-2.6zM22.773 16a26.96 26.96 0 0 1 1.162 2.803l.065.21c2.8-.84 4.373-2.04 4.373-3.013S26.76 13.827 24 12.987a28.843 28.843 0 0 1-1.305 3.193l.078-.18zM9.227 16a26.96 26.96 0 0 1-1.162-2.803L8 12.987c-2.8.84-4.373 2.04-4.373 3.013S5.24 18.173 8 19.013c.426-1.231.84-2.227 1.305-3.193l-.078.18zm12 3.013-.4.68c.413 0 .813-.133 1.173-.213-.128-.465-.26-.846-.412-1.217l.026.07-.387.68zM17.333 24.4c2.12 2 4 2.773 4.787 2.267s1.107-2.427.427-5.333c-.873.191-1.965.361-3.075.47l-.125.01a32.34 32.34 0 0 1-2.047 2.627l.034-.04zm-6.56-11.413.4-.68c-.413 0-.813.133-1.173.213.128.465.26.846.412 1.217l-.026-.07.387-.68zM14.667 7.6c-2.16-2-4-2.773-4.84-2.267s-1.093 2.427-.413 5.333a27.543 27.543 0 0 1 3.075-.47l.125-.01a32.39 32.39 0 0 1 2.083-2.621l-.03.035z" />
        </symbol>
        <symbol id="icon-javascript" viewBox="0 0 32 32">
            <path
                d="M24.525 29.491c-2.792 0-4.597-1.331-5.477-3.072l2.448-1.418c.645 1.053 1.482 1.826 2.965 1.826 1.245 0 2.04-.622 2.04-1.482 0-1.293-1.725-1.798-2.942-2.32-2.17-.923-3.61-2.083-3.61-4.533 0-2.254 1.718-3.973 4.405-3.973 1.91 0 3.286.666 4.274 2.405l-2.341 1.504c-.515-.923-1.074-1.288-1.933-1.288-.882 0-1.44.558-1.44 1.288 0 .902.558 1.267 1.848 1.826 2.702 1.158 4.747 2.069 4.747 5.048 0 2.707-2.126 4.189-4.984 4.189zM17.6 24.958c0 3.115-1.918 4.762-4.582 4.762-2.406 0-3.848-.92-4.557-2.52h-.042l2.446-1.71c.472.837.898 1.43 1.928 1.43.989 0 1.606-.501 1.606-2.003V14.4h3.2v10.558zM0 32h32V0H0v32z" />
        </symbol>
        <symbol id="icon-css" viewBox="0 0 32 32">
            <path
                d="m30.194.031-2.662 28.832-11.533 3.105-11.533-3.105L1.805.031h28.389zm-5.363 5.863H6.992l.43 3.482h9.049l-8.736 3.638.274 3.403 12.258.039-.274 4.538-4.036 1.133-3.867-.976-.235-2.817H8.243l.469 5.438 7.29 2.152 7.237-2.113.939-10.798h-8.21l.02-.009 8.489-3.629.352-3.482z" />
        </symbol>
    </defs>
</svg>